<?xml version="1.0" standalone="no"?>
<!DOCTYPE svg PUBLIC "-//W3C//DTD SVG 1.0//EN" "http://www.w3.org/TR/2001/REC-SVG-20010904/DTD/svg10.dtd">
<svg xmlns="http://www.w3.org/2000/svg" xmlns:xlink="http://www.w3.org/1999/xlink" id="body_1" width="38" height="38">

<g transform="matrix(0.1484375 0 0 0.1484375 0 0)">
	<g transform="matrix(2.81 0 0 2.81 1.4065934 1.4065934)">
        <path transform="matrix(1 0 0 1 0 0)"  d="M66.546 90L23.455 90C 18.97 90 15.322 86.352 15.322 81.866L15.322 81.866L15.322 19.232C 15.322 18.68 15.7699995 18.232 16.321999 18.232L16.321999 18.232L22.059998 18.232C 22.611998 18.232 23.059998 18.68 23.059998 19.232C 23.059998 19.784 22.611998 20.232 22.059998 20.232L22.059998 20.232L17.321999 20.232L17.321999 81.866C 17.321999 85.248 20.072998 88 23.454998 88L23.454998 88L66.546 88C 69.92799 88 72.679 85.248 72.679 81.866L72.679 81.866L72.679 20.232L58.104 20.232C 57.551 20.232 57.104 19.784 57.104 19.232C 57.104 18.68 57.551 18.232 58.104 18.232L58.104 18.232L73.679 18.232C 74.232 18.232 74.679 18.68 74.679 19.232L74.679 19.232L74.679 81.866C 74.679 86.352 71.03 90 66.546 90z" stroke="none" fill="#000000" fill-rule="nonzero" />
        <path transform="matrix(1 0 0 1 0 0)"  d="M58.017 39.102L16.321 39.102C 15.768999 39.102 15.320999 38.654 15.320999 38.102C 15.320999 37.550003 15.768999 37.102 16.321 37.102L16.321 37.102L58.016 37.102C 58.569 37.102 59.016 37.550003 59.016 38.102C 59.016 38.654 58.569 39.102 58.017 39.102z" stroke="none" fill="#000000" fill-rule="nonzero" />
        <path transform="matrix(1 0 0 1 0 0)"  d="M58.104 27.209C 57.551 27.209 57.104 26.761 57.104 26.209L57.104 26.209L57.104 9.333C 57.104 5.29 53.813 2 49.77 2L49.77 2L40.23 2C 36.187 2 32.897 5.29 32.897 9.333L32.897 9.333L32.897 26.209C 32.897 26.761 32.448997 27.209 31.897 27.209C 31.345001 27.209 30.897 26.761 30.897 26.209L30.897 26.209L30.897 9.333C 30.897 4.187 35.084 0 40.23 0L40.23 0L49.768997 0C 54.914997 0 59.102997 4.187 59.102997 9.333L59.102997 9.333L59.102997 26.209C 59.104 26.762 58.656 27.209 58.104 27.209z" stroke="none" fill="#000000" fill-rule="nonzero" />
        <path transform="matrix(1 0 0 1 0 0)"  d="M48.134 20.232L31.897 20.232C 31.345 20.232 30.897 19.784 30.897 19.232C 30.897 18.68 31.345 18.232 31.897 18.232L31.897 18.232L48.134 18.232C 48.687 18.232 49.134 18.68 49.134 19.232C 49.134 19.784 48.687 20.232 48.134 20.232z" stroke="none" fill="#000000" fill-rule="nonzero" />
        <path transform="matrix(1 0 0 1 0 0)"  d="M58.017 75.382L16.321 75.382C 15.768999 75.382 15.320999 74.935005 15.320999 74.382C 15.320999 73.829 15.768999 73.382 16.321 73.382L16.321 73.382L58.016 73.382C 58.569 73.382 59.016 73.829 59.016 74.382C 59.016 74.935005 58.569 75.382 58.017 75.382z" stroke="none" fill="#000000" fill-rule="nonzero" />
        <path transform="matrix(1 0 0 1 0 0)"  d="M45 66.869C 44.448 66.869 44 66.422005 44 65.869L44 65.869L44 48.131C 44 47.578 44.448 47.131 45 47.131C 45.552 47.131 46 47.578 46 48.131L46 48.131L46 65.869C 46 66.422 45.552 66.869 45 66.869z" stroke="none" fill="#000000" fill-rule="nonzero" />
        <path transform="matrix(1 0 0 1 0 0)"  d="M53.869 58L36.131 58C 35.579002 58 35.131 57.553 35.131 57C 35.131 56.447 35.579002 56 36.131 56L36.131 56L53.869003 56C 54.422005 56 54.869003 56.447 54.869003 57C 54.869003 57.553 54.422 58 53.869 58z" stroke="none" fill="#000000" fill-rule="nonzero" />
	</g>
</g>
</svg>
