<?xml version="1.0" standalone="no"?>
<!DOCTYPE svg PUBLIC "-//W3C//DTD SVG 1.0//EN" "http://www.w3.org/TR/2001/REC-SVG-20010904/DTD/svg10.dtd">
<svg xmlns="http://www.w3.org/2000/svg" xmlns:xlink="http://www.w3.org/1999/xlink" id="body_1" width="26" height="26">

<g transform="matrix(0.1015625 0 0 0.1015625 0 0)">
	<g transform="matrix(2.81 0 0 2.81 1.4065934 1.4065934)">
        <path transform="matrix(1 0 0 1 0 0)"  d="M89 65.019L89 30.953L1 30.953L1 76.099C 1 78.173 2.6820002 79.854996 4.756 79.854996L4.756 79.854996L75.763 79.854996C 76.658 72.584 82.006 66.708 89 65.019z" stroke="none" fill="#FFCC5A" fill-rule="nonzero" />
        <path transform="matrix(1 0 0 1 0 0)"  d="M89 30.953L89 23.113998C 89 21.039999 87.318 19.357998 85.244 19.357998L85.244 19.357998L46.614002 19.357998C 43.678 19.357998 40.814003 18.441998 38.423004 16.737999L38.423004 16.737999L32.850006 12.764999C 30.459005 11.060999 27.596006 10.1449995 24.659006 10.1449995L24.659006 10.1449995L5.541 10.1449995C 3.033 10.145 1 12.178 1 14.686L1 14.686L1 19.359L1 30.953999L89 30.953999L89 30.953z" stroke="none" fill="#FFCC5A" fill-rule="nonzero" />
        <path transform="matrix(1 0 0 1 0 0)"  d="M88.998 66.474C 88.998 70.16989 87.69131 73.324524 85.07791 75.93791C 82.46452 78.55131 79.30989 79.858 75.614 79.858C 71.91811 79.858 68.76347 78.55131 66.150085 75.93791C 63.536697 73.324524 62.230003 70.16989 62.23 66.474C 62.230003 62.77811 63.536697 59.62347 66.150085 57.010082C 68.76347 54.396694 71.91811 53.09 75.614 53.09C 79.30989 53.09 82.46452 54.396694 85.07791 57.010082C 87.69131 59.62347 88.998 62.77811 88.998 66.474C 88.998 66.629745 88.995285 66.785446 88.989845 66.94109" stroke="none" fill="#66CC4A" fill-rule="nonzero" />
        <path transform="matrix(1 0 0 1 0 0)"  d="M58.58 80.854L4.756 80.854C 2.133 80.854 0 78.721 0 76.099L0 76.099L0 30.953C 0 30.401 0.448 29.953 1 29.953L1 29.953L89 29.953C 89.553 29.953 90 30.401 90 30.953L90 30.953L90 50.277C 90 50.83 89.553 51.277 89 51.277C 88.447 51.277 88 50.83 88 50.277L88 50.277L88 31.953L2 31.953L2 76.099C 2 77.618996 3.236 78.854996 4.756 78.854996L4.756 78.854996L58.58 78.854996C 59.133003 78.854996 59.58 79.301994 59.58 79.854996C 59.58 80.408 59.133 80.854 58.58 80.854z" stroke="none" fill="#000000" fill-rule="nonzero" />
        <path transform="matrix(1 0 0 1 0 0)"  d="M89 31.953C 88.447 31.953 88 31.505 88 30.953L88 30.953L88 23.113998C 88 21.593998 86.764 20.357998 85.244 20.357998L85.244 20.357998L46.614002 20.357998C 43.451004 20.357998 40.418003 19.387999 37.842003 17.551998L37.842003 17.551998L32.269005 13.578999C 30.035006 11.985998 27.403004 11.143999 24.659004 11.143999L24.659004 11.143999L5.541 11.143999C 3.588 11.145 2 12.733 2 14.686L2 14.686L2 30.953999C 2 31.505999 1.552 31.953999 1 31.953999C 0.44799995 31.953999 0 31.505999 0 30.953999L0 30.953999L0 14.686C 0 11.631 2.485 9.145 5.541 9.145L5.541 9.145L24.659 9.145C 27.822 9.145 30.855 10.115001 33.43 11.951L33.43 11.951L39.003 15.924C 41.237 17.517 43.869 18.359 46.614 18.359L46.614 18.359L85.244 18.359C 87.866005 18.359 90 20.491999 90 23.115L90 23.115L90 30.954C 90 31.505 89.553 31.953 89 31.953z" stroke="none" fill="#000000" fill-rule="nonzero" />
        <path transform="matrix(1 0 0 1 0 0)"  d="M75.616 80.854C 67.684 80.854 61.232 74.40199 61.232 66.46999C 61.232 58.537994 67.684 52.085995 75.616 52.085995C 83.548 52.085995 90 58.539 90 66.471C 90 74.403 83.548 80.854 75.616 80.854zM75.616 54.087C 68.787994 54.087 63.232 59.643 63.232 66.471C 63.232 73.298996 68.788 78.855 75.616 78.855C 82.44399 78.855 88 73.299 88 66.471C 88 59.642998 82.444 54.087 75.616 54.087z" stroke="none" fill="#000000" fill-rule="nonzero" />
        <path transform="matrix(1 0 0 1 0 0)"  d="M81.145 67.471L70.087 67.471C 69.534 67.471 69.087 67.024 69.087 66.471C 69.087 65.918 69.534 65.471 70.087 65.471L70.087 65.471L81.145 65.471C 81.698 65.471 82.145 65.918 82.145 66.471C 82.145 67.024 81.697 67.471 81.145 67.471z" stroke="none" fill="#000000" fill-rule="nonzero" />
        <path transform="matrix(1 0 0 1 0 0)"  d="M75.616 73C 75.062996 73 74.616 72.553 74.616 72L74.616 72L74.616 60.942C 74.616 60.389 75.062996 59.942 75.616 59.942C 76.169 59.942 76.616 60.389 76.616 60.942L76.616 60.942L76.616 72C 76.616 72.553 76.169 73 75.616 73z" stroke="none" fill="#000000" fill-rule="nonzero" />
	</g>
</g>
</svg>
