<?xml version="1.0" standalone="no"?>
<!DOCTYPE svg PUBLIC "-//W3C//DTD SVG 1.0//EN" "http://www.w3.org/TR/2001/REC-SVG-20010904/DTD/svg10.dtd">
<svg xmlns="http://www.w3.org/2000/svg" xmlns:xlink="http://www.w3.org/1999/xlink" id="body_1" width="46" height="46">

<g transform="matrix(0.1796875 0 0 0.1796875 0 0)">
	<g transform="matrix(2.81 0 0 2.81 1.4065934 1.4065934)">
        <path transform="matrix(1 0 0 1 0 0)"  d="M1 66.006L1 76.908C 1 79.378 3.002 81.38 5.472 81.38L5.472 81.38L84.529 81.38C 86.999 81.38 89.001 79.378 89.001 76.908L89.001 76.908L89.001 27.757996C 89.001 25.287996 86.999 23.285995 84.529 23.285995L84.529 23.285995L49.17 23.285995C 46.492996 23.285995 43.919 22.255995 41.981 20.408995L41.981 20.408995L32.629997 11.496995C 30.692 9.65 28.118 8.62 25.441 8.62L25.441 8.62L5.472 8.62C 3.002 8.62 1 10.622 1 13.092L1 13.092L1 23.286999L1 52.292" stroke="none" fill="#FFC431" fill-rule="nonzero" />
        <path transform="matrix(1 0 0 1 0 0)"  d="M84.528 82.38L5.472 82.38C 2.455 82.38 0 79.926 0 76.908L0 76.908L0 66.006C 0 65.452995 0.448 65.006 1 65.006C 1.552 65.006 2 65.452995 2 66.006L2 66.006L2 76.908C 2 78.822 3.558 80.38 5.472 80.38L5.472 80.38L84.529 80.38C 86.443 80.38 88.001 78.822 88.001 76.908L88.001 76.908L88.001 27.757996C 88.001 25.843996 86.443 24.285995 84.529 24.285995L84.529 24.285995L49.17 24.285995C 46.223 24.285995 43.425 23.165995 41.292 21.132996L41.292 21.132996L31.939999 12.220996C 30.179998 10.542995 27.871998 9.618996 25.440998 9.618996L25.440998 9.618996L5.472 9.618996C 3.558 9.62 2 11.178 2 13.092L2 13.092L2 52.291C 2 52.844 1.552 53.291 1 53.291C 0.44799995 53.291 0 52.844 0 52.291L0 52.291L0 13.092C 0 10.075 2.455 7.62 5.472 7.62L5.472 7.62L25.441 7.62C 28.388 7.62 31.186 8.74 33.32 10.774L33.32 10.774L42.672 19.686C 44.432 21.363 46.74 22.287 49.171 22.287L49.171 22.287L84.52901 22.287C 87.547005 22.287 90.00101 24.742 90.00101 27.759L90.00101 27.759L90.00101 76.909004C 90 79.926 87.546 82.38 84.528 82.38z" stroke="none" fill="#000000" fill-rule="nonzero" />
        <path transform="matrix(1 0 0 1 0 0)"  d="M45 62.081C 44.448 62.081 44 61.634003 44 61.081L44 61.081L44 40.919C 44 40.367 44.448 39.919 45 39.919C 45.552 39.919 46 40.367 46 40.919L46 40.919L46 61.081C 46 61.634 45.552 62.081 45 62.081z" stroke="none" fill="#000000" fill-rule="nonzero" />
        <path transform="matrix(1 0 0 1 0 0)"  d="M55.081 52L34.919 52C 34.367 52 33.919 51.553 33.919 51C 33.919 50.447 34.367 50 34.919 50L34.919 50L55.081 50C 55.634003 50 56.081 50.447 56.081 51C 56.081 51.553 55.634 52 55.081 52z" stroke="none" fill="#000000" fill-rule="nonzero" />
	</g>
</g>
</svg>
