<?xml version="1.0" standalone="no"?>
<!DOCTYPE svg PUBLIC "-//W3C//DTD SVG 1.0//EN" "http://www.w3.org/TR/2001/REC-SVG-20010904/DTD/svg10.dtd">
<svg xmlns="http://www.w3.org/2000/svg" xmlns:xlink="http://www.w3.org/1999/xlink" id="body_1" width="54" height="54">

<g transform="matrix(0.2109375 0 0 0.2109375 0 0)">
	<g transform="matrix(2.81 0 0 2.81 1.4065934 1.4065934)">
        <path transform="matrix(1 0 0 1 0 0)"  d="M28.55 28.74L45 35.39L45 89L2.44 71.81L2.44 38.43L2.44 18.19L18.89 24.84L18.89 24.84L18.89 47.27L28.55 51.18L28.55 28.74" stroke="none" fill="#E2AE83" fill-rule="nonzero" />
        <path transform="matrix(1 0 0 1 0 0)"  d="M87.56 18.19L45 35.39L28.55 28.74L71.11 11.55L87.56 18.19" stroke="none" fill="#E2AE83" fill-rule="nonzero" />
        <path transform="matrix(1 0 0 1 0 0)"  d="M61.45 7.64L18.89 24.84L18.89 24.84L2.44 18.19L45 1L61.45 7.64" stroke="none" fill="#E2AE83" fill-rule="nonzero" />
        <path transform="matrix(1 0 0 1 0 0)"  d="M45 35.39L45 89L87.56 71.81L87.56 38.43L87.56 18.19L45 35.39" stroke="none" fill="#C48D69" fill-rule="nonzero" />
        <path transform="matrix(1 0 0 1 0 0)"  d="M61.45 7.64L18.89 24.84L18.89 47.27L28.55 51.18L28.55 28.74L71.11 11.55L61.45 7.64" stroke="none" fill="#FFD2A6" fill-rule="nonzero" />
        <path transform="matrix(1 0 0 1 0 0)"  d="M45 36.387C 44.873 36.387 44.746 36.363003 44.625 36.314L44.625 36.314L28.175 29.668C 27.663 29.460999 27.414999 28.877998 27.622 28.366C 27.829 27.854 28.413 27.608 28.924 27.813L28.924 27.813L45 34.309L84.89 18.193998L45 2.079L5.11 18.193L19.264 23.911001C 19.776 24.118002 20.024 24.701002 19.817 25.213001C 19.609999 25.725 19.026 25.972002 18.515 25.766L18.515 25.766L2.066 19.121C 1.688 18.968 1.441 18.601 1.441 18.194C 1.441 17.787 1.689 17.42 2.066 17.267L2.066 17.267L44.626 0.073999405C 44.866 -0.023000598 45.135 -0.023000598 45.375 0.073999405L45.375 0.073999405L87.935 17.267C 88.312996 17.42 88.56 17.787 88.56 18.194C 88.56 18.601 88.312996 18.968 87.935 19.121L87.935 19.121L45.374996 36.315002C 45.254 36.363 45.127 36.387 45 36.387z" stroke="none" fill="#000000" fill-rule="nonzero" />
        <path transform="matrix(1 0 0 1 0 0)"  d="M45 90C 44.804 90 44.608 89.942 44.441 89.829C 44.165 89.644 44 89.332 44 89L44 89L44 35.387C 44 34.979 44.248 34.613003 44.625 34.460003L44.625 34.460003L87.184 17.266003C 87.493 17.142002 87.840996 17.178003 88.118996 17.364002C 88.394 17.550003 88.559 17.861002 88.559 18.193003L88.559 18.193003L88.559 71.806C 88.559 72.213 88.312 72.58 87.934 72.733L87.934 72.733L45.373997 89.926C 45.254 89.976 45.126 90 45 90zM46 36.062L46 87.518005L86.56 71.132L86.56 19.676L46 36.062z" stroke="none" fill="#000000" fill-rule="nonzero" />
        <path transform="matrix(1 0 0 1 0 0)"  d="M45 90C 44.874 90 44.746 89.976 44.625 89.927L44.625 89.927L2.066 72.733C 1.688 72.581 1.441 72.213005 1.441 71.806L1.441 71.806L1.441 18.193C 1.441 17.86 1.606 17.550001 1.882 17.364C 2.157 17.178 2.507 17.141 2.816 17.266L2.816 17.266L19.265 23.912C 19.776999 24.119001 20.025 24.702002 19.817999 25.214C 19.610998 25.727001 19.029 25.973001 18.515999 25.767L18.515999 25.767L3.44 19.676L3.44 71.132L44 87.518L44 36.062L28.175999 29.669C 27.664 29.462 27.415998 28.879 27.623 28.367C 27.83 27.856 28.414 27.609001 28.925 27.814001L28.925 27.814001L45.375 34.46C 45.752 34.613 46 34.979 46 35.387L46 35.387L46 89C 46 89.332 45.835 89.644 45.559 89.829C 45.392 89.942 45.196 90 45 90z" stroke="none" fill="#000000" fill-rule="nonzero" />
        <path transform="matrix(1 0 0 1 0 0)"  d="M28.55 52.177C 28.424 52.177 28.296 52.153 28.175 52.103996L28.175 52.103996L18.515 48.2C 18.137 48.048 17.89 47.68 17.89 47.273003L17.89 47.273003L17.89 24.839C 17.89 24.431 18.137999 24.065 18.515 23.912L18.515 23.912L61.074 6.718C 61.314003 6.621 61.584 6.621 61.824 6.718L61.824 6.718L71.485 10.621C 71.863 10.774 72.11 11.141001 72.11 11.548C 72.11 11.955 71.863 12.3220005 71.485 12.475L71.485 12.475L29.55 29.416L29.55 51.177002C 29.55 51.509003 29.384998 51.821003 29.109 52.006C 28.942 52.119 28.747 52.177 28.55 52.177zM19.89 46.599L27.550999 49.695L27.550999 28.742C 27.550999 28.334 27.798998 27.968 28.175999 27.815L28.175999 27.815L68.44 11.548L61.449 8.724001L19.89 25.513L19.89 46.599z" stroke="none" fill="#000000" fill-rule="nonzero" />
        <path transform="matrix(1 0 0 1 0 0)"  d="M52.542 78.351C 52.146 78.351 51.772 78.115 51.615 77.726C 51.408 77.213 51.655003 76.63 52.167 76.423996L52.167 76.423996L61.828 72.521996C 62.341 72.314995 62.923 72.562 63.129997 73.074C 63.336998 73.587 63.089996 74.17 62.578 74.376L62.578 74.376L52.917 78.278C 52.794 78.327 52.667 78.351 52.542 78.351z" stroke="none" fill="#000000" fill-rule="nonzero" />
        <path transform="matrix(1 0 0 1 0 0)"  d="M52.542 72.119C 52.146 72.119 51.772 71.883 51.615 71.494C 51.408 70.981 51.655003 70.398 52.167 70.192L52.167 70.192L61.828 66.289C 62.341 66.082 62.923 66.329 63.129997 66.841C 63.336998 67.354004 63.089996 67.937004 62.578 68.143005L62.578 68.143005L52.917 72.046005C 52.794 72.096 52.667 72.119 52.542 72.119z" stroke="none" fill="#000000" fill-rule="nonzero" />
        <path transform="matrix(1 0 0 1 0 0)"  d="M52.542 65.887C 52.146 65.887 51.772 65.651 51.615 65.262C 51.408 64.749 51.655003 64.166 52.167 63.96L52.167 63.96L61.828 60.058C 62.341 59.850998 62.923 60.098 63.129997 60.609997C 63.336998 61.122997 63.089996 61.705997 62.578 61.911995L62.578 61.911995L52.917 65.813995C 52.794 65.863 52.667 65.887 52.542 65.887z" stroke="none" fill="#000000" fill-rule="nonzero" />
	</g>
</g>
</svg>
