<?xml version="1.0" standalone="no"?>
<!DOCTYPE svg PUBLIC "-//W3C//DTD SVG 1.0//EN" "http://www.w3.org/TR/2001/REC-SVG-20010904/DTD/svg10.dtd">
<svg xmlns="http://www.w3.org/2000/svg" xmlns:xlink="http://www.w3.org/1999/xlink" id="body_1" width="31" height="31">

<g transform="matrix(0.12109375 0 0 0.12109375 0 0)">
	<g transform="matrix(2.81 0 0 2.81 1.4065934 1.4065934)">
        <path transform="matrix(1 0 0 1 0 0)"  d="M69.39 20.05L69.39 85.31L8.26 85.31L8.26 1L50.34 1L69.39 20.05" stroke="none" fill="#E1EFFF" fill-rule="nonzero" />
        <path transform="matrix(1 0 0 1 0 0)"  d="M50.34 1L69.39 20.05L50.34 20.05L50.34 1" stroke="none" fill="#AFCAD8" fill-rule="nonzero" />
        <path transform="matrix(1 0 0 1 0 0)"  d="M69.39 86.312L8.254 86.312C 7.7019997 86.312 7.2539997 85.865 7.2539997 85.312L7.2539997 85.312L7.2539997 1C 7.2539997 0.448 7.7019997 0 8.254 0L8.254 0L50.335 0C 50.600998 0 50.855 0.105 51.042 0.293L51.042 0.293L70.097 19.348C 70.285 19.536 70.39 19.789999 70.39 20.055L70.39 20.055L70.39 85.313C 70.39 85.865 69.942 86.312 69.39 86.312zM9.254 84.312L68.39 84.312L68.39 20.469L49.921 2L9.254 2L9.254 84.312z" stroke="none" fill="#000000" fill-rule="nonzero" />
        <path transform="matrix(1 0 0 1 0 0)"  d="M69.39 21.055L50.335 21.055C 49.781998 21.055 49.335 20.607 49.335 20.055L49.335 20.055L49.335 1C 49.335 0.59599996 49.578 0.231 49.952 0.075999975C 50.326 -0.078000024 50.756 0.006999977 51.042 0.29299998L51.042 0.29299998L70.097 19.348C 70.383 19.633999 70.469 20.064 70.314 20.438C 70.159 20.811 69.794 21.055 69.39 21.055zM51.335 19.055L66.976 19.055L51.335 3.414L51.335 19.055z" stroke="none" fill="#000000" fill-rule="nonzero" />
        <path transform="matrix(1 0 0 1 0 0)"  d="M55.38 33.228L22.265 33.228C 21.713 33.228 21.265 32.78 21.265 32.228C 21.265 31.676003 21.713 31.228 22.265 31.228L22.265 31.228L55.38 31.228C 55.933002 31.228 56.38 31.676 56.38 32.228C 56.38 32.78 55.933 33.228 55.38 33.228z" stroke="none" fill="#000000" fill-rule="nonzero" />
        <path transform="matrix(1 0 0 1 0 0)"  d="M48.072 46.625L22.265 46.625C 21.713 46.625 21.265 46.177 21.265 45.625C 21.265 45.073 21.713 44.625 22.265 44.625L22.265 44.625L48.072998 44.625C 48.626 44.625 49.072998 45.073 49.072998 45.625C 49.072998 46.177 48.625 46.625 48.072 46.625z" stroke="none" fill="#000000" fill-rule="nonzero" />
        <path transform="matrix(1 0 0 1 0 0)"  d="M35.894 60.021L22.265 60.021C 21.713 60.021 21.265 59.574 21.265 59.021C 21.265 58.468 21.713 58.021 22.265 58.021L22.265 58.021L35.893997 58.021C 36.445995 58.021 36.893997 58.468 36.893997 59.021C 36.893997 59.574 36.446 60.021 35.894 60.021z" stroke="none" fill="#000000" fill-rule="nonzero" />
        <path transform="matrix(1 0 0 1 0 0)"  d="M33.458 73.417L22.265 73.417C 21.713 73.417 21.265 72.97 21.265 72.417C 21.265 71.864 21.713 71.417 22.265 71.417L22.265 71.417L33.459 71.417C 34.010998 71.417 34.459 71.864 34.459 72.417C 34.459 72.97 34.011 73.417 33.458 73.417z" stroke="none" fill="#000000" fill-rule="nonzero" />
        <path transform="matrix(1 0 0 1 0 0)"  d="M31.023 19.832L22.265 19.832C 21.713 19.832 21.265 19.384 21.265 18.832C 21.265 18.28 21.713 17.832 22.265 17.832L22.265 17.832L31.022999 17.832C 31.574999 17.832 32.023 18.28 32.023 18.832C 32.023 19.384 31.575 19.832 31.023 19.832z" stroke="none" fill="#000000" fill-rule="nonzero" />
        <path transform="matrix(1 0 0 1 0 0)"  d="M81.744 69.732C 81.744 75.053825 79.86246 79.596275 76.099365 83.35936C 72.33627 87.12245 67.79382 89.004 62.472 89.004C 57.15019 89.004 52.607735 87.12245 48.84464 83.35936C 45.08155 79.596275 43.2 75.053825 43.2 69.732C 43.2 64.41019 45.08155 59.867737 48.84464 56.10464C 52.607735 52.341553 57.15019 50.460007 62.472 50.460003C 67.79382 50.460007 72.33627 52.341553 76.099365 56.10464C 79.86246 59.867737 81.744 64.41019 81.744 69.732C 81.744 69.95627 81.74009 70.180466 81.73226 70.40459" stroke="none" fill="#CD4C60" fill-rule="nonzero" />
        <path transform="matrix(1 0 0 1 0 0)"  d="M62.474 90C 51.295 90 42.202 80.906 42.202 69.728C 42.202 58.549995 51.295998 49.456997 62.474 49.456997C 73.652 49.456997 82.744995 58.550995 82.744995 69.728C 82.745 80.906 73.651 90 62.474 90zM62.474 51.456C 52.399 51.456 44.202 59.652 44.202 69.727005C 44.202 79.80201 52.398 88 62.474 88C 72.55 88 80.744995 79.803 80.744995 69.728C 80.744995 59.652992 72.549 51.456 62.474 51.456z" stroke="none" fill="#000000" fill-rule="nonzero" />
        <path transform="matrix(1 0 0 1 0 0)"  d="M54.558 78.644C 54.302 78.644 54.045998 78.546 53.850998 78.351C 53.46 77.96 53.46 77.327995 53.850998 76.937L53.850998 76.937L69.683 61.104996C 70.074 60.713997 70.706 60.713997 71.097 61.104996C 71.488 61.495995 71.488 62.127995 71.097 62.518997L71.097 62.518997L55.265 78.351C 55.069 78.546 54.813 78.644 54.558 78.644z" stroke="none" fill="#000000" fill-rule="nonzero" />
        <path transform="matrix(1 0 0 1 0 0)"  d="M70.39 78.644C 70.134 78.644 69.878 78.546 69.683 78.351L69.683 78.351L53.851 62.519C 53.460003 62.128002 53.460003 61.496002 53.851 61.105C 54.242 60.713997 54.874 60.714 55.265003 61.105L55.265003 61.105L71.097 76.937C 71.488 77.327995 71.488 77.96 71.097 78.351C 70.901 78.546 70.646 78.644 70.39 78.644z" stroke="none" fill="#000000" fill-rule="nonzero" />
	</g>
</g>
</svg>
