<?xml version="1.0" standalone="no"?>
<!DOCTYPE svg PUBLIC "-//W3C//DTD SVG 1.0//EN" "http://www.w3.org/TR/2001/REC-SVG-20010904/DTD/svg10.dtd">
<svg xmlns="http://www.w3.org/2000/svg" xmlns:xlink="http://www.w3.org/1999/xlink" id="body_1" width="46" height="46">

<g transform="matrix(0.1796875 0 0 0.1796875 0 0)">
	<g transform="matrix(2.81 0 0 2.81 1.4065934 1.4065934)">
        <path transform="matrix(1 0 0 1 0 0)"  d="M63.089 1.483L15.755 1.483C 14.204 1.483 12.9470005 2.74 12.9470005 4.2910004L12.9470005 4.2910004L12.9470005 85.709C 12.9470005 87.26 14.204 88.517 15.755001 88.517L15.755001 88.517L74.245 88.517C 75.796005 88.517 77.053 87.259995 77.053 85.709L77.053 85.709L77.053 14.927L63.089 1.483zM65.896 14.927C 64.345 14.927 63.088005 13.67 63.088005 12.1189995L63.088005 12.1189995L63.088005 1.483L77.052 14.927L65.896 14.927z" stroke="none" fill="none" />
        <path transform="matrix(1 0 0 1 0 0)"  d="M75.569 83.678L75.569 85.709C 75.569 86.437996 74.975 87.032 74.245 87.032L74.245 87.032L15.755001 87.032C 15.025002 87.032 14.431001 86.437996 14.431001 85.709L14.431001 85.709L14.431001 4.291C 14.431001 3.5609999 15.025001 2.967 15.755001 2.967L15.755001 2.967L61.606003 2.967L61.606003 12.12C 61.606003 14.486 63.531002 16.411 65.896 16.411L65.896 16.411L75.569 16.411L75.569 83.678C 76.590004 83.772 77.17 85.231 78.536 83.112L78.536 83.112L78.536 14.94C 78.537 14.856 78.53001 14.773999 78.518005 14.691999C 78.518005 14.691999 78.517006 14.691999 78.517006 14.690999C 78.517006 14.689999 78.517006 14.689999 78.517006 14.687999C 78.517006 14.686998 78.51601 14.685999 78.51601 14.6849985C 78.509 14.642999 78.50101 14.602999 78.490005 14.561998C 78.489006 14.560998 78.492004 14.558998 78.489006 14.558998C 78.489006 14.556998 78.489006 14.555998 78.48801 14.554998C 78.422005 14.301998 78.28901 14.065998 78.09601 13.874998L78.09601 13.874998L78.09501 13.874998C 78.09501 13.874998 78.09401 13.873998 78.09401 13.873998C 78.087006 13.872997 78.09201 13.872997 78.09101 13.871998C 78.09401 13.866998 78.08901 13.869998 78.08901 13.869998C 78.08701 13.868998 78.09001 13.868998 78.08601 13.867998C 78.08701 13.866998 78.084015 13.866998 78.084015 13.865998C 78.083015 13.864998 78.082016 13.864998 78.08102 13.863998L78.08102 13.863998L64.118 0.415C 64.117 0.414 64.116 0.413 64.115 0.412C 64.114 0.411 64.113 0.41 64.112 0.409C 63.911 0.21900001 63.668 0.09200001 63.409 0.034999996C 63.371002 0.026999995 63.334 0.019999996 63.296 0.014999997C 63.295002 0.014999997 63.295002 0.014999997 63.295002 0.014999997C 63.293003 0.013999997 63.292004 0.014999997 63.29 0.013999997C 63.288002 0.013999997 63.286 0.012999997 63.286 0.013999997C 63.285 0.013999997 63.283 0.013999997 63.281 0.013999997C 63.279 0.013999997 63.278 0.012999997 63.275997 0.013999997C 63.275997 0.013999997 63.274998 0.013999997 63.270996 0.012999997C 63.207 0.003 63.131 0.003 63.079 0L63.079 0L15.755 0C 13.389 0 11.464001 1.925 11.464001 4.291L11.464001 4.291L11.464001 85.71C 11.464001 88.075 13.389001 90 15.755001 90L15.755001 90L74.245 90C 76.611 90 78.536 88.075 78.536 85.71L78.536 85.71L78.536 83.112C 77.58 83.39 76.59 83.584 75.569 83.678zM64.573 4.971L73.373 13.444L65.896 13.444C 65.16701 13.444 64.573006 12.85 64.573006 12.12L64.573006 12.12L64.573006 4.971z" stroke="none" fill="#000000" fill-rule="nonzero" />
        <path transform="matrix(1 0 0 1 0 0)"  d="M21.924 66.401C 21.104 66.401 20.44 67.065 20.44 67.885C 20.44 68.705 21.104 69.369 21.924 69.369L21.924 69.369L44.592 69.369C 45.411 69.369 46.076 68.705 46.076 67.885C 46.076 67.065 45.412 66.401 44.592 66.401L44.592 66.401L21.924 66.401z" stroke="none" fill="#000000" fill-rule="nonzero" />
        <path transform="matrix(1 0 0 1 0 0)"  d="M21.924 39.698L69.218 39.698C 70.037 39.698 70.702 39.034 70.702 38.214C 70.702 37.394 70.038 36.73 69.218 36.73L69.218 36.73L21.924 36.73C 21.104 36.73 20.44 37.394 20.44 38.214C 20.44 39.034 21.105 39.698 21.924 39.698z" stroke="none" fill="#000000" fill-rule="nonzero" />
        <path transform="matrix(1 0 0 1 0 0)"  d="M70.702 57.995C 70.702 57.176 70.038 56.510998 69.218 56.510998L69.218 56.510998L21.924 56.510998C 21.104 56.510998 20.44 57.175 20.44 57.995C 20.44 58.815 21.104 59.479 21.924 59.479L21.924 59.479L69.218 59.479C 70.038 59.478 70.702 58.814 70.702 57.995z" stroke="none" fill="#000000" fill-rule="nonzero" />
        <path transform="matrix(1 0 0 1 0 0)"  d="M21.924 29.808L44.592 29.808C 45.411 29.808 46.076 29.144001 46.076 28.324001C 46.076 27.504002 45.412 26.840002 44.592 26.840002L44.592 26.840002L21.924 26.840002C 21.104 26.840002 20.44 27.504002 20.44 28.324001C 20.441 29.144 21.105 29.808 21.924 29.808z" stroke="none" fill="#000000" fill-rule="nonzero" />
        <path transform="matrix(1 0 0 1 0 0)"  d="M21.924 49.588L69.218 49.588C 70.037 49.588 70.702 48.924 70.702 48.104C 70.702 47.285 70.038 46.62 69.218 46.62L69.218 46.62L21.924 46.62C 21.104 46.62 20.44 47.284 20.44 48.104C 20.441 48.924 21.105 49.588 21.924 49.588z" stroke="none" fill="#000000" fill-rule="nonzero" />
	</g>
</g>
</svg>
