<?xml version="1.0" standalone="no"?>
<!DOCTYPE svg PUBLIC "-//W3C//DTD SVG 1.0//EN" "http://www.w3.org/TR/2001/REC-SVG-20010904/DTD/svg10.dtd">
<svg xmlns="http://www.w3.org/2000/svg" xmlns:xlink="http://www.w3.org/1999/xlink" id="body_1" width="46" height="46">

<g transform="matrix(0.1796875 0 0 0.1796875 0 0)">
	<g transform="matrix(2.81 0 0 2.81 1.4065934 1.4065934)">
        <path transform="matrix(1 0 0 1 0 0)"  d="M0.625 76.898C 0.232 76.35 0 75.678 0 74.952L0 74.952L0 67.875L0 22.622C 0 21.017 1.301 19.715 2.907 19.715L2.907 19.715L5.102 19.715C 7.314 19.715 9.107 17.922 9.107 15.71C 9.107 13.498 10.900001 11.705 13.112 11.705L13.112 11.705L35.892002 11.705C 37.386 11.705 38.756 12.536 39.445004 13.8619995L39.445004 13.8619995L41.369003 17.56C 42.059002 18.885 43.428 19.717 44.922005 19.717L44.922005 19.717L71.296005 19.717C 72.90101 19.717 74.203 21.018 74.203 22.623999L74.203 22.623999L74.203 39.267998L0.625 76.898z" stroke="none" fill="#E8A113" fill-rule="nonzero" />
        <path transform="matrix(1 0 0 1 0 0)"  d="M63.873 35.394L63.873 28.469002C 63.873 26.353003 62.158 24.638002 60.042 24.638002L60.042 24.638002L11.11 24.638002C 8.9939995 24.638002 7.2789993 26.353003 7.2789993 28.469002L7.2789993 28.469002L7.2789993 65.093L63.873 35.394z" stroke="none" fill="#FFF2CA" fill-rule="nonzero" />
        <path transform="matrix(1 0 0 1 0 0)"  d="M67.873 39.394L67.873 32.469C 67.873 30.353003 66.158005 28.638002 64.042 28.638002L64.042 28.638002L15.11 28.638002C 12.9939995 28.638002 11.278999 30.353003 11.278999 32.469L11.278999 32.469L11.278999 59.093002L67.873 39.394z" stroke="none" fill="#FFFEF8" fill-rule="nonzero" />
        <path transform="matrix(1 0 0 1 0 0)"  d="M16.438 41.635C 17.084 40.194 18.517 39.266 20.096 39.266L20.096 39.266L86.86 39.266C 89.134 39.266 90.652 41.61 89.722 43.684998L89.722 43.684998L75.492004 75.42C 74.70801 77.169 72.97 78.295 71.053 78.295L71.053 78.295L10.421 78.295L3.344 78.295C 2.223 78.295 1.2320001 77.743996 0.625 76.897995L0.625 76.897995L0.628 76.895996L8.75 58.781L16.438 41.635" stroke="none" fill="#FFC431" fill-rule="nonzero" />
	</g>
</g>
</svg>
