<?xml version="1.0" standalone="no"?>
<!DOCTYPE svg PUBLIC "-//W3C//DTD SVG 1.0//EN" "http://www.w3.org/TR/2001/REC-SVG-20010904/DTD/svg10.dtd">
<svg xmlns="http://www.w3.org/2000/svg" xmlns:xlink="http://www.w3.org/1999/xlink" id="body_1" width="46" height="46">

<g transform="matrix(0.1796875 0 0 0.1796875 0 0)">
	<g transform="matrix(2.81 0 0 2.81 1.4065934 1.4065934)">
        <path transform="matrix(1 0 0 1 0 0)"  d="M0 68.798L0 80.712C 0 82.424995 1.401 83.826 3.114 83.826C 6.458 83.826 7.9189997 81.184 7.9189997 81.184L7.9189997 81.184L8.14 29.281L10.879001 26.454L83.772995 23.477001L83.772995 21.995C 83.772995 19.599 81.83099 17.657001 79.435 17.657001L79.435 17.657001L50.236 17.657001C 49.086 17.657001 47.982 17.2 47.169 16.387001L47.169 16.387001L38.225998 7.444001C 37.413 6.631001 36.309 6.174001 35.158997 6.174001L35.158997 6.174001L4.338 6.174001C 1.942 6.174 0 8.116 0 10.512L0 10.512L0 17.658L0 19.990002L0 68.798" stroke="none" fill="#E0AD31" fill-rule="nonzero" />
        <path transform="matrix(1 0 0 1 0 0)"  d="M3.114 83.826C 4.827 83.826 6.228 82.424995 6.228 80.712L6.228 80.712L6.228 27.81C 6.228 25.417 8.168 23.477 10.561001 23.477L10.561001 23.477L85.668 23.477C 88.061 23.477 90.001 25.417 90.001 27.81L90.001 27.81L90.001 79.493996C 90.001 81.88699 88.061 83.826996 85.668 83.826996C 85.667 83.826 3.114 83.826 3.114 83.826z" stroke="none" fill="#FFC843" fill-rule="nonzero" />
	</g>
</g>
</svg>
