<?xml version="1.0" standalone="no"?>
<!DOCTYPE svg PUBLIC "-//W3C//DTD SVG 1.0//EN" "http://www.w3.org/TR/2001/REC-SVG-20010904/DTD/svg10.dtd">
<svg xmlns="http://www.w3.org/2000/svg" xmlns:xlink="http://www.w3.org/1999/xlink" id="body_1" width="31" height="31">

<g transform="matrix(0.12109375 0 0 0.12109375 0 0)">
	<g transform="matrix(2.81 0 0 2.81 1.4065934 1.4065934)">
        <path transform="matrix(1 0 0 1 0 0)"  d="M2.151 15.847C 1.463 15.847 0.903 15.243 1.014 14.565001C 1.628 10.81 4.893 7.9440007 8.829 7.9440007L8.829 7.9440007L14.558001 7.9440007L20.675001 15.847L2.151 15.847z" stroke="none" fill="#438AE8" fill-rule="nonzero" />
        <path transform="matrix(1 0 0 1 0 0)"  d="M66.537 74.153L66.537 58.846L66.537 15.847C 66.537 11.482 62.991 7.9440002 58.618004 7.9440002L58.618004 7.9440002L8.83 7.9440002C 13.204 7.9440002 16.749 11.482 16.749 15.847L16.749 15.847L16.749 58.846L16.749 74.153C 16.749 78.518 20.295 82.056 24.668001 82.056L24.668001 82.056L66.537 74.153z" stroke="none" fill="#80B4FB" fill-rule="nonzero" />
        <path transform="matrix(1 0 0 1 0 0)"  d="M66.537 74.153L33.934 74.153C 33.195 74.153 32.601997 74.707 32.482998 75.435C 31.868998 79.189995 28.603998 82.056 24.667997 82.056L24.667997 82.056L74.457 82.056C 78.424 82.056 81.71 79.145 82.286 75.347C 82.382 74.716 81.865005 74.153 81.225006 74.153L81.225006 74.153L66.537 74.153" stroke="none" fill="#438AE8" fill-rule="nonzero" />
        <path transform="matrix(1 0 0 1 0 0)"  d="M16.806 59.846C 16.254 59.846 15.806 59.399002 15.806 58.846L15.806 58.846L15.806 16.847L1 16.847C 0.448 16.847 0 16.399 0 15.847C 0 10.938 3.994 6.9449997 8.903 6.9449997C 13.812 6.9449997 17.806 10.938999 17.806 15.847L17.806 15.847L17.806 58.846C 17.806 59.398 17.358 59.846 16.806 59.846zM2.072 14.847L15.733 14.847C 15.247 11.514 12.3689995 8.945 8.902 8.945C 5.4350014 8.945 2.558 11.513 2.072 14.847z" stroke="none" fill="#000000" fill-rule="nonzero" />
        <path transform="matrix(1 0 0 1 0 0)"  d="M66.492 59.846C 65.938995 59.846 65.492 59.399002 65.492 58.846L65.492 58.846L65.492 15.847C 65.492 12.041 62.394997 8.945 58.588997 8.945C 58.035995 8.945 57.588997 8.497 57.588997 7.9449997C 57.588997 7.3929996 58.035995 6.9449997 58.588997 6.9449997C 63.497997 6.9449997 67.492 10.938999 67.492 15.847L67.492 15.847L67.492 58.846C 67.492 59.398 67.045 59.846 66.492 59.846z" stroke="none" fill="#000000" fill-rule="nonzero" />
        <path transform="matrix(1 0 0 1 0 0)"  d="M58.589 8.944L8.903 8.944C 8.351 8.944 7.903 8.496 7.903 7.9440002C 7.903 7.392 8.351 6.9440002 8.903 6.9440002L8.903 6.9440002L58.589 6.9440002C 59.142002 6.9440002 59.589 7.392 59.589 7.9440002C 59.589 8.496 59.142 8.944 58.589 8.944z" stroke="none" fill="#000000" fill-rule="nonzero" />
        <path transform="matrix(1 0 0 1 0 0)"  d="M74.395 83.056C 73.841995 83.056 73.395 82.609 73.395 82.056C 73.395 81.503 73.841995 81.056 74.395 81.056C 77.862 81.056 80.739 78.488 81.225 75.154L81.225 75.154L66.492 75.154C 65.938995 75.154 65.492 74.707 65.492 74.154C 65.492 73.601 65.938995 73.154 66.492 73.154L66.492 73.154L82.297 73.154C 82.85 73.154 83.297 73.601 83.297 74.154C 83.297 79.063 79.304 83.056 74.395 83.056z" stroke="none" fill="#000000" fill-rule="nonzero" />
        <path transform="matrix(1 0 0 1 0 0)"  d="M66.492 75.153C 65.938995 75.153 65.492 74.706 65.492 74.153L65.492 74.153L65.492 58.846C 65.492 58.293 65.938995 57.846 66.492 57.846C 67.045 57.846 67.492 58.293 67.492 58.846L67.492 58.846L67.492 74.154C 67.492 74.706 67.045 75.153 66.492 75.153z" stroke="none" fill="#000000" fill-rule="nonzero" />
        <path transform="matrix(1 0 0 1 0 0)"  d="M24.708 83.056C 19.799 83.056 15.805 79.063 15.805 74.154L15.805 74.154L15.805 58.846C 15.805 58.293 16.253 57.846 16.805 57.846C 17.357 57.846 17.805 58.293 17.805 58.846L17.805 58.846L17.805 74.154C 17.805 77.96 20.902 81.056 24.708 81.056C 25.26 81.056 25.708 81.503 25.708 82.056C 25.708 82.609 25.261 83.056 24.708 83.056z" stroke="none" fill="#000000" fill-rule="nonzero" />
        <path transform="matrix(1 0 0 1 0 0)"  d="M74.395 83.056L24.708 83.056C 24.156 83.056 23.708 82.609 23.708 82.056C 23.708 81.503 24.156 81.056 24.708 81.056L24.708 81.056L74.394 81.056C 74.947 81.056 75.394 81.503 75.394 82.056C 75.394 82.609 74.947 83.056 74.395 83.056z" stroke="none" fill="#000000" fill-rule="nonzero" />
        <path transform="matrix(1 0 0 1 0 0)"  d="M24.708 83.056C 24.156 83.056 23.708 82.609 23.708 82.056C 23.708 81.503 24.156 81.056 24.708 81.056C 28.514 81.056 31.611 77.959 31.611 74.154C 31.611 73.601 32.059002 73.154 32.611 73.154L32.611 73.154L66.492004 73.154C 67.045006 73.154 67.492004 73.601 67.492004 74.154C 67.492004 74.707 67.045006 75.154 66.492004 75.154L66.492004 75.154L33.556 75.154C 33.057 79.593 29.28 83.056 24.708 83.056z" stroke="none" fill="#000000" fill-rule="nonzero" />
        <path transform="matrix(1 0 0 1 0 0)"  d="M46.449 53.351L27.373 53.351C 26.821 53.351 26.373 52.904003 26.373 52.351C 26.373 51.798 26.821 51.351 27.373 51.351L27.373 51.351L46.449997 51.351C 47.003 51.351 47.449997 51.798 47.449997 52.351C 47.449997 52.904003 47.002 53.351 46.449 53.351z" stroke="none" fill="#000000" fill-rule="nonzero" />
        <path transform="matrix(1 0 0 1 0 0)"  d="M43.678 64.817L27.373 64.817C 26.821 64.817 26.373 64.37 26.373 63.817C 26.373 63.264 26.821 62.817 27.373 62.817L27.373 62.817L43.678 62.817C 44.23 62.817 44.678 63.264 44.678 63.817C 44.678 64.37 44.23 64.817 43.678 64.817z" stroke="none" fill="#000000" fill-rule="nonzero" />
        <path transform="matrix(1 0 0 1 0 0)"  d="M32.388 23.584C 36.055 23.056 39.296 21.742 41.992 19.427C 44.689 21.742 47.929 23.056 51.596 23.584L51.596 23.584L51.596 33.794C 51.596 38.963997 47.588 43.363 41.992 45C 36.395 43.364 32.388 38.964 32.388 33.794L32.388 33.794L32.388 23.584z" stroke="none" fill="#FFC250" fill-rule="nonzero" />
        <path transform="matrix(1 0 0 1 0 0)"  d="M41.992 46C 41.897 46 41.803 45.987 41.711002 45.96C 35.536003 44.154 31.388002 39.265 31.388002 33.794L31.388002 33.794L31.388002 23.584C 31.388002 23.087 31.753002 22.664999 32.245003 22.594C 35.902004 22.067 38.877003 20.782999 41.340004 18.668C 41.715004 18.347 42.268005 18.347 42.643005 18.668C 45.106007 20.782999 48.082005 22.067 51.738007 22.594C 52.230007 22.664999 52.595005 23.087 52.595005 23.584L52.595005 23.584L52.595005 33.793C 52.595005 39.264 48.447006 44.153 42.272003 45.959C 42.181 45.987 42.086 46 41.992 46zM33.388 24.435L33.388 33.794C 33.388 38.287 36.833 42.339996 41.992 43.954998C 47.151 42.339996 50.596 38.287 50.596 33.794L50.596 33.794L50.596 24.434998C 47.282 23.835999 44.394 22.588997 41.992 20.718998C 39.59 22.589 36.702 23.836 33.388 24.435z" stroke="none" fill="#000000" fill-rule="nonzero" />
        <path transform="matrix(1 0 0 1 0 0)"  d="M40.813 36.52C 40.81 36.52 40.808 36.52 40.805 36.52C 40.514 36.518 40.239 36.389 40.051 36.167L40.051 36.167L37.246 32.861C 36.889 32.44 36.94 31.809 37.362 31.451C 37.784 31.095 38.414 31.146 38.772 31.567L38.772 31.567L40.827 33.989L45.947998 28.154C 46.313 27.737999 46.945 27.698 47.358997 28.062C 47.774 28.426 47.815998 29.058 47.451996 29.473L47.451996 29.473L41.566994 36.179C 41.375 36.396 41.101 36.52 40.813 36.52z" stroke="none" fill="#000000" fill-rule="nonzero" />
        <path transform="matrix(1 0 0 1 0 0)"  d="M54.495 53.585L50.475 63.642998L60.532997 59.622997L87.74899 32.406998C 89.41599 30.739998 89.41599 28.035997 87.74899 26.368998C 86.08199 24.701998 83.37799 24.701998 81.71099 26.368998L81.71099 26.368998L54.495 53.585z" stroke="none" fill="#CCCCCC" fill-rule="nonzero" />
        <path transform="matrix(1 0 0 1 0 0)"  d="M54.49 53.59L50.48 63.64L60.53 59.62L54.49 53.59" stroke="none" fill="#CCCCCC" fill-rule="nonzero" />
        <path transform="matrix(1 0 0 1 0 0)"  d="M81.711 26.369C 83.378 24.702 86.082 24.702 87.749 26.369C 89.416 28.036 89.416 30.74 87.749 32.406998L87.749 32.406998L85.537 34.618996L79.499 28.580996L81.711 26.369z" stroke="none" fill="#CCCCCC" fill-rule="nonzero" />
        <path transform="matrix(1 0 0 1 0 0)"  d="M50.476 64.644C 50.216003 64.644 49.960003 64.542 49.769 64.351C 49.486 64.069 49.399002 63.643997 49.547 63.273L49.547 63.273L53.567 53.213997C 53.618 53.087997 53.693 52.973995 53.789 52.878L53.789 52.878L81.005005 25.661999C 82.00001 24.665998 83.323006 24.119 84.731 24.119C 86.139 24.119 87.462006 24.667 88.458 25.661999C 89.452 26.657 90 27.98 90 29.388C 90 30.796001 89.452 32.119 88.456 33.114002L88.456 33.114002L61.24 60.33C 61.144 60.426003 61.030003 60.501003 60.904003 60.552002L60.904003 60.552002L50.846004 64.573C 50.727 64.62 50.601 64.644 50.476 64.644zM55.348 54.146L52.27 61.85L59.972 58.771L87.042 31.701C 87.66 31.083 88 30.261 88 29.388C 88 28.515001 87.66 27.694 87.042 27.076C 85.808 25.841 83.653 25.84 82.418 27.076L82.418 27.076L55.348 54.146z" stroke="none" fill="#000000" fill-rule="nonzero" />
        <path transform="matrix(1 0 0 1 0 0)"  d="M50.476 64.644C 50.216003 64.644 49.960003 64.542 49.769 64.351C 49.486 64.069 49.399002 63.643997 49.547 63.273L49.547 63.273L53.567 53.213997C 53.692 52.900997 53.965 52.672997 54.295002 52.605995C 54.622 52.540997 54.965 52.640995 55.203003 52.877995L55.203003 52.877995L61.241005 58.915993C 61.478004 59.152992 61.581005 59.49499 61.513004 59.823994C 61.445004 60.152996 61.217003 60.426994 60.905003 60.551994L60.905003 60.551994L50.847004 64.573C 50.727 64.62 50.601 64.644 50.476 64.644zM54.86 55.365L52.27 61.85L58.754 59.258L54.86 55.365z" stroke="none" fill="#000000" fill-rule="nonzero" />
        <path transform="matrix(1 0 0 1 0 0)"  d="M85.538 35.619C 85.273 35.619 85.018005 35.514 84.831 35.326L84.831 35.326L78.792 29.287C 78.604 29.099 78.499 28.845001 78.499 28.58C 78.499 28.314999 78.604004 28.06 78.792 27.873L78.792 27.873L81.004 25.661999C 81.999 24.665998 83.322 24.119 84.729996 24.119C 86.13799 24.119 87.461 24.667 88.45699 25.661999C 89.452 26.657 90 27.98 90 29.388C 90 30.796001 89.452 32.119 88.456 33.114002L88.456 33.114002L86.245 35.326004C 86.058 35.514 85.804 35.619 85.538 35.619zM80.913 28.581L85.538 33.204998L87.042 31.700998C 87.66 31.083 88 30.261 88 29.388C 88 28.515001 87.66 27.694 87.042 27.076C 85.808 25.841 83.653 25.84 82.418 27.076L82.418 27.076L80.913 28.581zM81.711 26.369L81.721 26.369L81.711 26.369z" stroke="none" fill="#000000" fill-rule="nonzero" />
        <path transform="matrix(1 0 0 1 0 0)"  d="M75.724 50.936C 75.468 50.936 75.212 50.838 75.017 50.643C 74.626 50.252003 74.626 49.620003 75.017 49.229L75.017 49.229L84.831 39.415C 85.958 38.288002 85.958 36.454002 84.831 35.327C 84.44 34.936 84.44 34.304 84.831 33.913C 85.222 33.521996 85.854004 33.522 86.245 33.913C 88.152 35.82 88.152 38.922997 86.245 40.829998L86.245 40.829998L76.431 50.643997C 76.235 50.838 75.979 50.936 75.724 50.936z" stroke="none" fill="#000000" fill-rule="nonzero" />
	</g>
</g>
</svg>
